<svg width="64" height="64" viewBox="0 0 64 64" fill="none" xmlns="http://www.w3.org/2000/svg">
<path d="M25.0316 40.4065L24.5746 44.5738L27.9551 42.0944L25.0316 40.4065Z" fill="black"/>
<path d="M25.4887 36.2392L31.3356 39.6149M25.4887 36.2392L30.9506 26.7788M25.4887 36.2392L25.0316 40.4065M31.3356 39.6149L42.2596 20.6941M31.3356 39.6149L27.9551 42.0944M38.1525 14.3048L39.727 11.5777C40.0031 11.0994 40.6147 10.9355 41.093 11.2117L45.2079 13.5874C45.6862 13.8635 45.8501 14.4751 45.5739 14.9534L43.9995 17.6805M38.1525 14.3048L43.9995 17.6805M38.1525 14.3048L36.4126 17.3184M43.9995 17.6805L42.2596 20.6941M36.4126 17.3184L42.2596 20.6941M36.4126 17.3184L32.8254 23.5316M25.0316 40.4065L24.5746 44.5738L27.9551 42.0944M25.0316 40.4065L27.9551 42.0944" stroke="black" stroke-width="2" stroke-linecap="round"/>
<path d="M7 46H43" stroke="black" stroke-width="2"/>
<path d="M14 32.5C14 22.2827 22.2827 14 32.5 14" stroke="black" stroke-width="2" stroke-dasharray="1 5"/>
</svg>
